<svg width="131" height="28" viewBox="0 0 131 28" fill="none" xmlns="http://www.w3.org/2000/svg">
<path d="M16.1028 -0.000172497C22.6556 -0.000171638 27.9677 5.31193 27.9677 11.8647C27.9677 15.1438 26.6375 18.1122 24.4873 20.2598L7.93164 20.2598L7.93164 3.26192C10.0593 1.24035 12.9362 -0.000172912 16.1028 -0.000172497Z" fill="url(#paint0_linear_2712_68363)"/>
<path d="M11.8717 28.0002C5.31514 28.0002 1.23805e-07 22.6851 1.55679e-06 16.1285C2.27387e-06 12.8476 1.33097 9.87746 3.48243 7.72869L20.0476 7.72869L20.0476 24.7363C17.9187 26.759 15.0401 28.0002 11.8717 28.0002Z" fill="url(#paint1_linear_2712_68363)"/>
<path d="M20.0469 20.2603L7.93164 20.2603L7.93164 7.72876L20.0469 7.72876L20.0469 20.2603Z" fill="url(#paint2_linear_2712_68363)"/>
<path d="M45.4467 11.1017V21.1068H43.0455V20.3665C42.3851 20.9868 41.3046 21.387 40.3241 21.387C37.5827 21.387 35.7617 19.7662 35.7617 17.3249V11.1017H38.163V17.0447C38.163 18.3854 39.1435 19.2659 40.6042 19.2659C42.065 19.2659 43.0455 18.3854 43.0455 17.0447V11.1017H45.4467Z" fill="#0E0E0E"/>
<path d="M51.5333 21.387C48.8319 21.387 46.9709 19.9062 46.8909 17.7051H49.1521C49.2321 18.7056 50.1926 19.386 51.5333 19.386C52.874 19.386 53.7745 18.8657 53.7745 18.0853C53.7745 17.605 53.1741 17.2649 51.3132 16.9047C48.4117 16.2443 47.4912 15.584 47.4912 13.9231C47.4912 12.0622 49.112 10.8215 51.5333 10.8215C53.4543 10.8215 55.1352 11.8621 55.7155 13.4229L53.5143 13.9632C53.2142 13.2828 52.4138 12.8226 51.5333 12.8226C50.5528 12.8226 49.8925 13.2228 49.8925 13.8031C49.8925 14.2233 50.3527 14.4834 51.7734 14.8036C55.1151 15.504 56.1757 16.2643 56.1757 18.0853C56.1757 20.0663 54.3147 21.387 51.5333 21.387Z" fill="#0E0E0E"/>
<path d="M63.1365 10.8215C66.2981 10.8215 68.4192 12.9426 68.4192 16.1043C68.4192 19.2659 66.2981 21.387 63.1365 21.387C61.9158 21.387 60.5752 20.8267 59.8148 20.0063V24.8288H57.4135V11.1017H59.8148V12.2022C60.5752 11.3818 61.9158 10.8215 63.1365 10.8215ZM62.8964 12.9426C61.0554 12.9426 59.8148 14.2033 59.8148 16.1043C59.8148 18.0052 61.0554 19.2659 62.8964 19.2659C64.7773 19.2659 66.018 18.0052 66.018 16.1043C66.018 14.2033 64.7773 12.9426 62.8964 12.9426Z" fill="#0E0E0E"/>
<path d="M74.6638 21.387C71.5422 21.387 69.4611 19.2659 69.4611 16.1043C69.4611 12.9426 71.5422 10.8215 74.6638 10.8215C75.8444 10.8215 77.1451 11.3618 77.9055 12.1822V11.1017H80.3067V21.1068H77.9055V20.0263C77.1451 20.8467 75.8444 21.387 74.6638 21.387ZM74.904 19.2659C76.7049 19.2659 77.9055 18.0052 77.9055 16.1043C77.9055 14.2033 76.7049 12.9426 74.904 12.9426C73.083 12.9426 71.8624 14.2033 71.8624 16.1043C71.8624 18.0052 73.083 19.2659 74.904 19.2659Z" fill="#0E0E0E"/>
<path d="M83.1679 24.8288L84.8888 20.4665L81.0668 11.1017H83.6281L86.1094 17.3849L88.5707 11.1017H91.152L85.7492 24.8288H83.1679Z" fill="#0E0E0E"/>
<path d="M95.5599 21.387C92.8585 21.387 90.9976 19.9062 90.9175 17.7051H93.1787C93.2587 18.7056 94.2192 19.386 95.5599 19.386C96.9006 19.386 97.8011 18.8657 97.8011 18.0853C97.8011 17.605 97.2008 17.2649 95.3398 16.9047C92.4383 16.2443 91.5178 15.584 91.5178 13.9231C91.5178 12.0622 93.1387 10.8215 95.5599 10.8215C97.4809 10.8215 99.1618 11.8621 99.7421 13.4229L97.541 13.9632C97.2408 13.2828 96.4404 12.8226 95.5599 12.8226C94.5794 12.8226 93.9191 13.2228 93.9191 13.8031C93.9191 14.2233 94.3793 14.4834 95.8001 14.8036C99.1418 15.504 100.202 16.2643 100.202 18.0853C100.202 20.0663 98.3414 21.387 95.5599 21.387Z" fill="#0E0E0E"/>
<path d="M106.658 21.387C103.396 21.387 101.235 19.2659 101.235 16.1043C101.235 12.9426 103.396 10.8215 106.658 10.8215C109.92 10.8215 112.081 12.9426 112.081 16.1043V16.5645L111.881 16.7646H103.677C103.897 18.3454 105.097 19.386 106.658 19.386C107.839 19.386 108.939 18.7056 109.4 17.7051H111.841C111.18 19.9062 109.099 21.387 106.658 21.387ZM103.837 14.7636H109.48C109.019 13.5229 107.999 12.8226 106.658 12.8226C105.317 12.8226 104.297 13.5229 103.837 14.7636Z" fill="#0E0E0E"/>
<path d="M113.517 21.1068V11.1017H115.918V12.2823C116.438 11.4619 117.419 10.9016 118.339 10.9016C118.699 10.9016 119.12 10.9816 119.4 11.1017V12.9426H118.579C116.978 12.9426 115.918 13.8431 115.918 15.1838V21.1068H113.517Z" fill="#0E0E0E"/>
<path d="M124.406 21.1068L120.404 11.1017H122.985L125.626 18.5855L128.288 11.1017H130.869L126.847 21.1068H124.406Z" fill="#0E0E0E"/>
<defs>
<linearGradient id="paint0_linear_2712_68363" x1="23.9307" y1="19.4962" x2="7.73679" y2="10.0549" gradientUnits="userSpaceOnUse">
<stop stop-color="#2A33FF"/>
<stop offset="1" stop-color="#5D41FD"/>
</linearGradient>
<linearGradient id="paint1_linear_2712_68363" x1="1.91946e-06" y1="14.8331" x2="14.7419" y2="17.9788" gradientUnits="userSpaceOnUse">
<stop stop-color="#7DA9FF"/>
<stop offset="1" stop-color="#A6D0FF"/>
</linearGradient>
<linearGradient id="paint2_linear_2712_68363" x1="19.3029" y1="17.9349" x2="13.9891" y2="4.68018" gradientUnits="userSpaceOnUse">
<stop stop-color="#2D34FF"/>
<stop offset="1" stop-color="#2F0092"/>
</linearGradient>
</defs>
</svg>
